<?xml version="1.0" encoding="utf-8"?>
<!-- Generator: Adobe Illustrator 19.2.1, SVG Export Plug-In . SVG Version: 6.00 Build 0)  -->
<svg version="1.1" id="Слой_1" xmlns="http://www.w3.org/2000/svg" xmlns:xlink="http://www.w3.org/1999/xlink" x="0px" y="0px"
	 viewBox="0 0 24 24" style="enable-background:new 0 0 24 24;" xml:space="preserve">
<g>
	<path d="M22.4,21.5l-5.3-5.3c1.5-1.7,2.3-3.9,2.2-6.2c-0.1-2.4-1-4.6-2.8-6.2s-4-2.5-6.4-2.5S5.6,2.3,3.9,4
		c-1.7,1.6-2.7,3.9-2.7,6.3S2,15,3.7,16.6c1.6,1.7,3.9,2.7,6.2,2.8c2.3,0.1,4.5-0.7,6.2-2.2l5.3,5.3c0.1,0.1,0.3,0.2,0.5,0.2
		s0.4-0.1,0.5-0.2c0.1-0.1,0.2-0.3,0.2-0.5C22.7,21.9,22.6,21.7,22.4,21.5z M2.6,10.4c0-1.5,0.5-3,1.3-4.3S6,3.8,7.4,3.2
		c1.4-0.6,3-0.8,4.5-0.5s2.9,1,3.9,2.1s1.8,2.5,2.1,3.9c0.3,1.5,0.2,3-0.5,4.5c-0.7,1.4-1.6,2.6-2.9,3.4c-1.2,0.9-2.8,1.3-4.3,1.3
		c-2,0-4-0.9-5.4-2.3C3.4,14.4,2.6,12.4,2.6,10.4z"/>
	<path d="M22,23c-0.3,0-0.5-0.1-0.7-0.3l-5.2-5.2c-1.7,1.4-4,2.2-6.2,2.1c-2.5-0.1-4.7-1.1-6.4-2.9S1,12.6,1,10.2
		c0-2.5,1-4.8,2.8-6.5S7.8,1,10.2,1c2.4,0,4.8,0.9,6.5,2.6c1.8,1.7,2.8,3.9,2.9,6.4c0.1,2.3-0.7,4.5-2.1,6.2l5.2,5.1
		c0.2,0.2,0.3,0.4,0.3,0.7s-0.1,0.5-0.3,0.7C22.4,22.9,22.2,23,22,23z M16.2,16.9l5.5,5.5c0.2,0.2,0.5,0.2,0.6,0
		c0.1-0.1,0.1-0.2,0.1-0.3c0-0.1,0-0.2-0.1-0.3l-5.5-5.5l0.2-0.2c1.4-1.7,2.2-3.8,2.1-6.1c-0.1-2.3-1-4.5-2.8-6
		c-1.6-1.6-3.8-2.5-6.2-2.5c-2.3,0-4.5,1-6.1,2.6s-2.6,3.8-2.6,6.1s0.9,4.5,2.5,6.2S7.7,19,10,19.1c2.2,0.1,4.4-0.7,6.1-2.1
		L16.2,16.9z M10.3,18.3c-2.1,0-4.1-0.9-5.6-2.3c-1.5-1.5-2.3-3.5-2.3-5.6l0,0c0-1.6,0.5-3.1,1.3-4.4c0.9-1.3,2.1-2.3,3.5-3
		c1.4-0.6,3-0.8,4.6-0.5s3,1,4.1,2.2s1.9,2.5,2.2,4.1c0.3,1.5,0.2,3.1-0.5,4.6c-0.6,1.4-1.6,2.7-3,3.5
		C13.4,17.8,11.9,18.3,10.3,18.3z M2.8,10.4c0,2,0.8,3.9,2.2,5.2c1.4,1.4,3.3,2.2,5.2,2.2c1.5,0,3-0.5,4.2-1.2
		c1.2-0.9,2.2-2,2.8-3.3S18,10.4,17.6,9c-0.3-1.4-1-2.8-2-3.8s-2.4-1.7-3.8-2c-1.4-0.4-3-0.3-4.4,0.3C6,4,4.9,5,4,6.2
		C3.3,7.4,2.8,8.9,2.8,10.4L2.8,10.4z"/>
</g>
</svg>
