<?xml version="1.0" encoding="UTF-8"?>
<!-- Generator: Adobe Illustrator 24.0.1, SVG Export Plug-In . SVG Version: 6.00 Build 0)  -->
<svg version="1.1" id="Слой_1" xmlns="http://www.w3.org/2000/svg" xmlns:xlink="http://www.w3.org/1999/xlink" x="0px" y="0px" viewBox="0 0 283.46 283.46" style="enable-background:new 0 0 283.46 283.46;" xml:space="preserve">
<path d="M282.36,78.6c-0.03-9.43-0.07-18.94-1.27-28.27c-2.78-21.7-14.47-36.96-35.01-45.02c-9.76-3.83-20.12-4.27-30.4-4.3  c-46.6-0.14-93.19-0.13-139.79-0.02C67.2,1.01,58.44,1.17,49.85,2.28C30.24,4.81,15.83,15.08,7.01,32.94  C1.68,43.75,1.02,55.47,0.97,67.13c-0.21,47.13-0.16,94.26-0.06,141.39c0.02,8.37,0.14,16.82,1.29,25.08  c3,21.39,14.56,36.48,34.83,44.51c9.76,3.87,20.12,4.25,30.4,4.33c24.62,0.2,49.25,0.06,73.87,0.06c0,0.01,0,0.01,0,0.02  c21.86,0,43.73,0.11,65.59-0.05c8.69-0.07,17.39-0.46,26.05-1.19c22.4-1.89,42.54-19.42,46.86-41.44c1.75-8.88,2.43-18.1,2.48-27.17  C282.54,167.98,282.48,123.29,282.36,78.6z M210.73,117.78c-3.53,23.5-7.08,46.99-10.7,70.47c-0.48,3.13-1.09,6.31-2.2,9.27  c-3.06,8.19-9.08,10.78-17,7.11c-4.2-1.95-8.11-4.58-12-7.14c-11.69-7.71-23.33-15.51-34.95-23.34c-9.17-6.18-9.63-10.89-1.65-18.43  c12.19-11.51,24.52-22.87,36.73-34.36c2.31-2.17,4.45-4.56,6.41-7.06c0.65-0.82,1.02-2.92,0.56-3.33c-0.82-0.72-2.48-0.99-3.62-0.73  c-1.38,0.31-2.66,1.28-3.88,2.11c-17.09,11.67-34.16,23.37-51.25,35.04c-2.19,1.49-4.46,2.88-6.74,4.22  c-6.73,3.97-13.65,5.15-21.34,2.55c-7.72-2.62-15.7-4.49-23.56-6.69c-0.2-0.06-0.41-0.12-0.6-0.21c-2.46-1.05-5.25-2.04-5.43-5.16  c-0.18-3.16,2.25-5.01,4.76-6.21c6.12-2.93,12.33-5.7,18.57-8.37c32.79-13.99,65.6-27.96,98.43-41.86  c5.86-2.48,11.84-4.68,17.8-6.93c1.57-0.59,3.25-1.08,4.91-1.24c7.5-0.74,10.86,2.43,10.79,12.17  C213.64,97.63,212.24,107.71,210.73,117.78z"/>
</svg>