<?xml version="1.0" encoding="utf-8"?>
<!-- Generator: Adobe Illustrator 19.2.1, SVG Export Plug-In . SVG Version: 6.00 Build 0)  -->
<svg version="1.1" id="Слой_1" xmlns="http://www.w3.org/2000/svg" xmlns:xlink="http://www.w3.org/1999/xlink" x="0px" y="0px"
	 viewBox="0 0 24 24" style="enable-background:new 0 0 24 24;" xml:space="preserve">
<style type="text/css">
	.st0{fill:#0D0F0F;}
</style>
<path class="st0" d="M22.8,23.3H1.2c-0.6,0-1-0.4-1-1v-2.7c0-2.5,4.9-6.4,11-6.7c-0.6-0.1-1.1-0.2-1.7-0.4c-1.2-0.5-2.2-1.3-2.8-2.3
	S5.6,8.1,5.6,6.8c0-1.7,0.7-3.2,1.9-4.3c1.2-1.2,2.7-1.8,4.5-1.8l0,0c1.3,0,2.4,0.4,3.5,1c1.1,0.7,1.9,1.6,2.3,2.7s0.6,2.3,0.4,3.5
	c-0.3,1.2-0.9,2.3-1.8,3.1c-0.9,0.9-2.1,1.5-3.2,1.7c-0.2,0-0.3,0.1-0.5,0.1c6.1,0.3,11,4.2,11,6.7v2.6
	C23.8,22.8,23.4,23.3,22.8,23.3z M2.2,21.3h19.6v-1.7c0-1.2-4-4.7-9.8-4.7s-9.8,3.4-9.8,4.6V21.3z M12,2.7c-1.2,0-2.3,0.5-3.1,1.3
	S7.6,5.8,7.6,6.9c0,0.8,0.3,1.6,0.8,2.3s1.2,1.2,2,1.6c0.8,0.3,1.7,0.4,2.5,0.2c0.9-0.2,1.7-0.6,2.3-1.2c0.6-0.6,1-1.3,1.2-2.2
	C16.5,6.8,16.4,6,16,5.2c-0.3-0.8-0.9-1.4-1.7-1.9C13.8,3,12.9,2.7,12,2.7L12,2.7L12,2.7z M12,1.7L12,1.7L12,1.7z"/>
</svg>
