<?xml version="1.0" encoding="UTF-8"?>
<!-- Generator: Adobe Illustrator 24.0.1, SVG Export Plug-In . SVG Version: 6.00 Build 0)  -->
<svg version="1.1" id="Слой_1" xmlns="http://www.w3.org/2000/svg" xmlns:xlink="http://www.w3.org/1999/xlink" x="0px" y="0px" viewBox="0 0 283.46 283.46" style="enable-background:new 0 0 283.46 283.46;" xml:space="preserve">
<path d="M282.36,78.63c-0.03-9.43-0.07-18.94-1.27-28.27c-2.78-21.7-14.47-36.96-35.02-45.02c-9.76-3.83-20.12-4.27-30.41-4.3  c-46.6-0.14-93.19-0.13-139.79-0.02C67.2,1.04,58.44,1.2,49.85,2.31C30.24,4.84,15.83,15.11,7.01,32.97  C1.68,43.78,1.02,55.5,0.97,67.16c-0.21,47.13-0.16,94.26-0.06,141.39c0.02,8.37,0.14,16.82,1.29,25.08  c3,21.39,14.56,36.48,34.83,44.51c9.76,3.87,20.12,4.25,30.4,4.33c24.62,0.2,49.25,0.06,73.87,0.06c0,0.01,0,0.01,0,0.02  c21.86,0,43.73,0.11,65.59-0.05c8.69-0.07,17.39-0.46,26.05-1.19c22.4-1.89,42.54-19.42,46.86-41.44c1.75-8.88,2.43-18.1,2.48-27.17  C282.54,168.01,282.48,123.32,282.36,78.63z M206.17,204.82c-5.71-16.33-15.5-30-31.32-38.44c-5.64-3-11.73-5.31-19.1-5.46  c0,14.68,0,28.98,0,44.06c-4.4,0.08-8.14,0.4-11.85,0.18c-26.68-1.56-50.56-10-69.56-29.51c-12.3-12.63-20.39-27.86-25.5-44.66  c-3.93-12.91-6.65-26.06-7.03-39.62c-0.08-2.67-0.87-5.33-0.93-8c-0.1-4.35,0.67-5.2,4.99-5.29c7.19-0.15,14.39-0.04,21.59-0.05  c2.65,0,5.29,0,8.67,0c0.52,5.53,0.96,10.38,1.42,15.23c1.77,18.57,6.27,36.25,17.26,51.72c5.01,7.06,11.15,12.94,18.89,16.95  c2.13,1.1,4.48,1.8,7.77,3.09c0.08-6.42,0.18-11.92,0.22-17.42c0.04-5.63,0-11.26,0-16.88c0-5.85,0-11.71,0-17.56  c0-5.63,0-11.25,0-16.88c0-5.59,0-11.18,0-17.34c2.51-0.35,4.43-0.83,6.36-0.86c7.2-0.09,14.4-0.11,21.59-0.01  c5.49,0.07,6.02,0.62,6.05,6.36c0.06,12.16,0,24.31,0.03,36.47c0.01,2.17,0.19,4.35,0.3,6.81c6.81-0.88,12.13-3.65,17.08-7.2  c12.86-9.21,21.23-21.76,26.87-36.32c2.35-6.05,2.29-6.1,8.65-6.14c6.75-0.04,13.5-0.06,20.24,0.02c1.93,0.02,3.86,0.41,6.54,0.72  c-5.67,27.41-20.79,47.39-42.98,62.96c25.51,14,42.02,34.5,50,61.91C237.85,205.59,220.04,206.12,206.17,204.82z"/>
</svg>