<svg xmlns="http://www.w3.org/2000/svg" viewBox="0 0 763.81 145.64">
  <path d="M126.21,122.61,111.95,100a3.8,3.8,0,0,0-2.5-1.7,3.73,3.73,0,0,0-.71-.07,3.78,3.78,0,0,0-2.24.73l-3.06,2.25c-.12.08-11.68,8.27-26.49,8.27-22.29,0-36.69-14.4-36.69-36.69s14.4-36.69,36.69-36.69c13.68,0,24.91,6.65,25.18,6.81l3,1.87a3.79,3.79,0,0,0,5.22-1.19l14.18-22.46a3.78,3.78,0,0,0-.88-5l-2.54-2C120.36,13.6,102.94.28,75.18.28A85.28,85.28,0,0,0,44.82,5.6,69.52,69.52,0,0,0,21,20.54a66.66,66.66,0,0,0-15.5,23A77.22,77.22,0,0,0,0,72.82a77.23,77.23,0,0,0,5.52,29.32,66.66,66.66,0,0,0,15.5,23A69.53,69.53,0,0,0,44.82,140a85.24,85.24,0,0,0,30.36,5.32c28.77,0,47.13-15.18,47.9-15.82l2.37-2A3.81,3.81,0,0,0,126.21,122.61Z"/>
  <path d="M241.55,90.51a50.87,50.87,0,0,0,7.68-6.06,46.39,46.39,0,0,0,14.33-34.32C263.56,19.67,239.43,0,202.09,0H137.74a2.8,2.8,0,0,0-2.8,2.8v140a2.8,2.8,0,0,0,2.8,2.8h34.12a2.8,2.8,0,0,0,2.8-2.8V100.25h26.78l30.37,44.18a2.8,2.8,0,0,0,2.31,1.22h40.54a2.8,2.8,0,0,0,2.3-4.4ZM174.66,35h27.42c13,0,20.81,5.66,20.81,15.13,0,7.33-7.29,15.13-20.81,15.13H174.66Z"/>
  <path d="M403.81,110.65H325.28V90.79h52.05a2.8,2.8,0,0,0,2.8-2.8V58.6a2.8,2.8,0,0,0-2.8-2.8H325.28V35h76.64a2.8,2.8,0,0,0,2.8-2.8V2.8a2.8,2.8,0,0,0-2.8-2.8H288.36a2.8,2.8,0,0,0-2.8,2.8v140a2.8,2.8,0,0,0,2.8,2.8H403.8a2.8,2.8,0,0,0,2.8-2.8V113.45A2.8,2.8,0,0,0,403.81,110.65Z"/>
  <path d="M516.07,1.73A2.8,2.8,0,0,0,513.48,0h-38.2a2.8,2.8,0,0,0-2.59,1.73l-58,140a2.8,2.8,0,0,0,2.59,3.87H454a2.8,2.8,0,0,0,2.6-1.78l9.71-24.7h56.23l9.71,24.7a2.8,2.8,0,0,0,2.6,1.78H571.5a2.8,2.8,0,0,0,2.59-3.87Zm-8.42,81.49H481.11l13.27-32.06Z"/>
  <path d="M763.79,142.5l-17-140A2.8,2.8,0,0,0,744,0H708.86a2.8,2.8,0,0,0-2.54,1.63L673,74.08,639.69,1.63A2.8,2.8,0,0,0,637.15,0H602a2.8,2.8,0,0,0-2.78,2.46l-17,140a2.81,2.81,0,0,0,2.78,3.14h35.14a2.8,2.8,0,0,0,2.78-2.48l8.29-71.62,25,53.57a2.79,2.79,0,0,0,2.53,1.62h28.51a2.8,2.8,0,0,0,2.54-1.62l25-53.57,8.29,71.62a2.8,2.8,0,0,0,2.78,2.48H761a2.8,2.8,0,0,0,2.78-3.14Z"/>
</svg>
