<?xml version="1.0" encoding="UTF-8"?>
<!-- Generator: Adobe Illustrator 24.0.1, SVG Export Plug-In . SVG Version: 6.00 Build 0)  -->
<svg version="1.1" id="Слой_1" xmlns="http://www.w3.org/2000/svg" xmlns:xlink="http://www.w3.org/1999/xlink" x="0px" y="0px" viewBox="0 0 1417.32 141.73" style="enable-background:new 0 0 1417.32 141.73;" xml:space="preserve">
<style type="text/css">
	.st0{fill:#9D9D9C;}
	.st1{fill-rule:evenodd;clip-rule:evenodd;fill:#9D9D9C;}
</style>
<g>
	<path class="st0" d="M1408.32,115.9c-7.78,0-14.6,0-21.92,0c0-5.67,0-11.02,0-17.31c-8.42,0-16.36-0.08-24.29,0.1   c-1.01,0.02-2.15,1.22-2.95,2.12c-0.71,0.81-0.99,1.99-1.52,2.98c-2.2,4.05-3.59,10.48-6.81,11.59   c-5.59,1.92-12.31,0.53-19.38,0.53c2.5-4.74,4.59-8.83,6.79-12.86c12.86-23.59,25.8-47.14,38.54-70.79   c1.53-2.85,3.14-4.1,6.44-3.97c6.7,0.26,13.42,0.08,21.15,0.08C1405.68,57.52,1406.99,86.44,1408.32,115.9z M1383.11,55.41   c-0.43-0.06-0.87-0.13-1.3-0.19c-4.9,9.38-9.8,18.76-14.98,28.66c6.87,0,12.54,0,18.7,0C1384.7,74.09,1383.91,64.75,1383.11,55.41z   "/>
	<path class="st0" d="M1171.32,116.13c-0.57-21.25-1.11-41.57-1.65-61.9c-0.08-2.8-0.09-5.6-0.31-8.39   c-0.7-9.13-3.94-12.99-12.72-15.37c-1.3-0.35-2.57-0.85-3.65-2.53c13.1,0,26.2,0,39.92,0c0,18.57,0,36.41,0,54.26   c0.43,0.18,0.86,0.35,1.28,0.53c0.87-1.17,1.87-2.27,2.6-3.52c9.2-15.6,18.44-31.17,27.45-46.87c1.71-2.97,3.55-4.27,7.02-4.05   c4.77,0.3,9.57,0.08,15.33,0.08c-4.06,6.78-7.62,12.83-11.26,18.83c-13.19,21.7-26.35,43.41-39.71,65   c-1.09,1.76-3.51,3.62-5.44,3.77C1184.1,116.44,1177.97,116.13,1171.32,116.13z"/>
	<path class="st0" d="M1346.98,36.24c-3.04,4-5.72,7.54-8.49,11.18c-3.61-1.84-6.76-3.94-10.23-5.09   c-3.46-1.15-7.58-2.57-10.76-1.65c-3.5,1.01-7.55,4-8.94,7.19c-1.1,2.52,0.74,7.08,2.57,9.91c1.71,2.64,4.99,4.38,7.79,6.19   c9.63,6.24,15.92,14.34,14,26.46c-2.05,12.95-9.18,21.97-22.27,25.14c-13.03,3.16-25.93,2.81-38.22-3.31   c-2.12-1.06-4.02-2.53-6.26-3.95c2.51-4.59,4.8-8.8,6.94-12.72c5.41,1.8,10.23,3.92,15.28,4.91c4.12,0.81,8.54,0.65,12.75,0.23   c4.24-0.42,8.85-2.38,8.88-7c0.02-3.31-2.39-7.23-4.83-9.82c-3.28-3.48-7.72-5.83-11.51-8.86c-13.12-10.47-14.42-24.74-3.51-37.55   c11.62-13.64,39.62-16.17,53.45-4.78C1344.75,33.63,1345.65,34.83,1346.98,36.24z"/>
	<path class="st0" d="M1277.4,27.66c-4.52,14.18-8.72,27.49-13.01,40.76c-4.64,14.37-9.49,28.67-13.94,43.1   c-1.16,3.75-2.93,5-6.74,4.79c-5.54-0.3-11.1-0.08-17.56-0.08c2.71-8.47,5.16-16.21,7.66-23.93c6.48-20.04,13.06-40.06,19.41-60.15   c1.09-3.44,2.72-4.75,6.33-4.57C1265.26,27.86,1270.99,27.66,1277.4,27.66z"/>
</g>
<g id="Page-1">
	<g id="Artboard" transform="translate(-91.000000, -154.000000)">
		<g id="Group" transform="translate(91.000000, 154.000000)">
			<path id="Combined-Shape" class="st0" d="M229.5,67.37v47.46h26.37V86.7h29.88c12.57-0.09,23.25-8.13,27.29-19.34H229.5z"/>
			<path id="Combined-Shape_1_" class="st0" d="M225.98,28.26c1.54,19.38,19.91,34.72,42.32,34.72c0.09,0,45.83,0,45.83,0     c0.35-1.76,0.53-3.6,0.53-5.49c0-16.08-12.96-29.09-29-29.22H225.98z"/>
			<path id="Combined-Shape_2_" class="st0" d="M186.96,62.49v-0.04V62.49c0.31-0.53,0.79-0.83,1.41-0.83c0.88,0,1.54,0.7,1.58,1.54     l0,0v51.19h26.37V28.26h-26.37c-3.34,0.13-7.12,2.55-8.53,5.58l-20.96,45c-0.04,0.18-0.13,0.35-0.22,0.53l0,0l0,0     c-0.31,0.44-0.83,0.75-1.45,0.75c-0.97,0-1.76-0.79-1.76-1.76v-50.1h-26.37v86.13h26.37l0,0c3.3-0.18,6.99-2.59,8.39-5.58     l21.53-46.19C186.92,62.58,186.96,62.53,186.96,62.49L186.96,62.49z"/>
			<path id="Combined-Shape_3_" class="st0" d="M88.52,63.98l-15.42,50.4H54.12L38.74,63.94c-0.13-0.79-0.83-1.41-1.71-1.41     c-0.97,0-1.71,0.79-1.71,1.71l0,0v50.1H8.94V28.21h22.63h6.72c4.83,0,9.93,3.78,11.34,8.39l12.83,41.97     c0.66,2.11,1.67,2.07,2.33,0l12.83-41.97c1.41-4.66,6.5-8.39,11.34-8.39h6.72h22.63v86.13H91.95v-50.1c0,0,0,0,0-0.04     c0-0.97-0.79-1.71-1.71-1.71C89.36,62.53,88.66,63.15,88.52,63.98L88.52,63.98z"/>
		</g>
	</g>
</g>
<g>
	<path class="st0" d="M1018.08,62.97c-4.2-21.3-22.38-35.86-44.15-35.87c-31.88-0.01-63.77-0.02-95.65,0.02   c-2.61,0-5.26,0.19-7.83,0.62c-24.06,4.05-40.25,26.37-36.65,50.44c3.22,21.59,21.99,37.74,43.86,37.75c16.13,0,32.26,0,48.4,0   c15.89,0,31.79,0.04,47.68-0.04c3.04-0.02,6.11-0.26,9.1-0.82C1006,110.77,1023.07,88.32,1018.08,62.97z M979.83,111.94   c-1.6,0.22-3.23,0.32-4.85,0.32c-16.32,0.02-32.64,0.01-48.97,0.01c-16.18,0-32.36,0-48.54,0c-19.02,0-35.92-13.81-39.72-32.44   c-4.59-22.54,9.99-44.16,32.72-48.41c2.33-0.44,4.74-0.64,7.11-0.65c32.36-0.04,64.71-0.03,97.07-0.03   c20.13,0,37.6,15.29,40.25,35.21C1017.9,88.45,1002.39,108.8,979.83,111.94z"/>
	<path class="st0" d="M900.24,68.18c-2.45,1.47-4.51,3.16-4.07,6.45c0.04,0.27-0.11,0.56-0.17,0.83   c-2.12,10.24-12.59,16.8-22.82,14.29c-10.37-2.54-16.62-13.13-13.73-23.24c3.44-12.01,16.91-17.43,27.77-11.17   c0.39,0.23,1.07,0.47,1.35,0.29c1.46-0.94,2.84-2.01,4.28-3.07c-8.02-6.82-21.42-7.75-30.99,0.25   c-9.24,7.72-11.43,21.33-5.04,31.56c6.53,10.45,19.57,14.4,30.95,9.29c10.96-4.92,15.81-16.74,13.75-26.39   C901.02,67.65,900.65,67.94,900.24,68.18z"/>
	<path class="st0" d="M938.07,55.03c-0.87-0.22-1.77-0.47-2.66-0.49c-4.77-0.12-9.53-0.18-14.3-0.25c-0.13,0-0.25,0.1-0.36,0.14   c0,10.59,0,21.13,0,31.72c1.86,0,3.61,0,5.56,0c0-3,0.03-5.86-0.02-8.71c-0.02-0.93,0.29-1.22,1.23-1.23   c2.67-0.04,5.35-0.02,8-0.31c6.13-0.67,9.56-3.93,10.08-9.76C946.1,60.49,943.89,56.51,938.07,55.03z M936.5,70.19   c-2.16,0.58-4.48,0.74-6.73,0.82c-3.46,0.13-3.46,0.03-3.46-3.36c0-2.66,0-5.31,0-8.46c3.44,0.27,6.67,0.32,9.83,0.83   c2.41,0.39,3.55,2.15,3.66,4.62C939.92,67.34,938.82,69.56,936.5,70.19z"/>
	<path class="st0" d="M963.18,64.1c-4.55-1.77-9.13-1.64-13.6,0.37c-0.36,0.16-0.81,0.64-0.83,0.99c-0.08,1.91-0.04,3.82-0.04,6.08   c2.43-3.3,5.52-4.18,9.06-3.93c2.92,0.2,4.34,2.25,3.54,5.24c-1.3,0-2.63-0.04-3.96,0.01c-1.62,0.06-3.25,0.08-4.84,0.31   c-3.36,0.49-5.27,2.43-5.52,5.41c-0.31,3.73,1.14,6.58,4.18,7.42c1.6,0.44,3.39,0.46,5.06,0.3c2.32-0.22,4.07-1.62,5.64-3.44   c0,1.07,0,2.13,0,3.26c1.71,0,3.26,0,4.79,0c0-5.82,0.1-11.48-0.05-17.13C966.56,66.79,965.31,64.93,963.18,64.1z M959,81.11   c-1.34,0.47-2.88,0.59-4.31,0.5c-1.53-0.09-2.37-1.29-2.35-2.73c0.02-1.43,0.7-2.24,2.43-2.42c2.16-0.22,4.35-0.23,6.59-0.34   C961.8,78.68,961.08,80.38,959,81.11z"/>
	<path class="st0" d="M987.81,63.4c-0.8-0.04-1.06,0.35-1.27,1c-1.23,3.85-2.49,7.69-3.74,11.53c-0.3,0.91-0.63,1.8-1.04,2.97   c-0.34-0.79-0.56-1.26-0.75-1.74c-1.7-4.23-3.39-8.48-5.12-12.7c-0.17-0.41-0.59-0.99-0.92-1.01c-1.74-0.1-3.48-0.05-5.37-0.05   c0.26,0.66,0.44,1.15,0.64,1.62c2.83,6.71,5.66,13.41,8.48,20.12c0.83,1.96-0.62,4.94-2.73,5.25c-1,0.15-2.09-0.3-3.24-0.5   c0,1.09,0.05,2.31-0.02,3.53c-0.05,0.82,0.31,1.18,1.02,1.45c3.13,1.17,6.18,0.19,7.94-2.64c0.52-0.84,0.98-1.75,1.32-2.68   c1.87-5.04,3.69-10.09,5.52-15.14c1.31-3.61,2.62-7.22,4-11C990.83,63.42,989.32,63.47,987.81,63.4z"/>
	<path class="st0" d="M876.4,70.12c-2.57-1.7-5.22-3.29-8.11-5.1c0,2.31-0.04,4.26,0.03,6.21c0.02,0.42,0.38,0.98,0.74,1.21   c2.51,1.64,5.09,3.18,7.6,4.82c0.75,0.49,1.25,0.35,1.9-0.15c1.86-1.42,3.76-2.78,5.64-4.16c4.88-3.59,9.76-7.16,14.61-10.79   c0.39-0.29,0.83-1.1,0.68-1.4c-0.69-1.43-1.58-2.76-2.46-4.22c-0.67,0.49-1.14,0.82-1.59,1.15c-5.57,4.09-11.15,8.17-16.69,12.31   C877.9,70.66,877.31,70.72,876.4,70.12z"/>
</g>
<g>
	<path class="st1" d="M508.24,76.74c-2.14,1.46-2.74,4.03-0.51,4.89c2.15,0.82,5.31-0.6,5.75-2.83l0.52-2.66   C512.87,75.97,510.38,75.28,508.24,76.74z"/>
	<path class="st1" d="M621.46,76.74c-2.14,1.46-2.75,4.03-0.51,4.89c2.15,0.82,5.31-0.6,5.74-2.83l0.52-2.66v0   C626.09,75.97,623.61,75.28,621.46,76.74z"/>
	<polygon class="st1" points="513.99,76.14 513.99,76.14 513.99,76.14  "/>
	<path class="st1" d="M666.32,69.37c-2.06-2.74-6.79-0.58-8.23,4.8c-0.94,3.52,1.12,6.17,3.43,6.17c2.49,0,4.03-1.97,5.23-4.98h0   C667.43,73.14,667.06,70.35,666.32,69.37z"/>
	<path class="st1" d="M566.22,67.22c-2.66,0-4.55,1.37-5.32,4.46h8.32C569.65,69.28,568.88,67.22,566.22,67.22z"/>
	<path class="st1" d="M617.41,5.03c-15.94,0-30.44,5.58-41.89,14.92c8.74,8.43,15.4,18.99,18.98,30.93h-5.52   c-3.46-10.61-9.54-19.98-17.45-27.49c-7.96,7.58-13.92,17.01-17.34,27.46h-5.53c3.53-11.72,10-22.34,18.79-30.85   c-11.42-9.25-25.85-14.97-41.7-14.97c-36.72,0-66.5,29.77-66.5,66.5c0,36.72,29.77,66.49,66.5,66.49c15.85,0,30.28-5.72,41.7-14.97   c-8.67-8.41-15.22-18.98-18.79-30.85h5.53c3.42,10.44,9.38,19.88,17.34,27.46c7.91-7.51,13.99-16.88,17.45-27.49h5.52   c-3.58,11.94-10.25,22.5-18.98,30.93c11.45,9.35,25.95,14.92,41.89,14.92c36.72,0,66.49-29.77,66.49-66.49   C683.91,34.8,654.14,5.03,617.41,5.03z M496.32,87.12h-6.95l3.95-20.93l-9.35,20.93h-6.35l-1.8-21.44l-4.12,21.44h-6.69l5.75-29.68   h10.72l1.29,18.01l8.15-18.01h10.98L496.32,87.12L496.32,87.12z M512.96,87.12l-0.86-1.37c-1.2,0.86-2.14,1.29-5.58,1.46   c-3.43,0.17-7.8-2.4-7.03-7.46c1.89-10.29,13.89-8.4,15.61-8.58c0.77-3.69-1.8-3.35-4.12-3.43c-2.31-0.08-6.69,0.6-8.32,0.77   l1.03-5.32l0,0c4.38-0.86,6.69-0.77,8.75-0.86c11.23,0,10.12,8.06,9.43,11.41l-2.66,13.38H512.96z M540.15,80.17   c-1.11,7.38-9.09,6.95-10.72,6.95c-2.32,0-4.8,0-7.89-0.86l0.94-5.06c3.35,1.12,7.8,0.6,8.83,0.6c2.24,0,2.56-2.84,0.86-3.69   c-1.37-0.69-2.83-1.72-5.41-2.83c-1.6-0.69-3.26-2.57-2.32-7.12c1.23-5.93,9.26-5.83,10.21-5.83c0.94,0,3.43-0.26,6.6,0.94   l-1.54,4.98c-1.89-0.52-5.06-0.52-6.6-0.34c-2.49,0.69-1.46,3-0.09,3.6c1.37,0.6,3.52,1.8,4.8,2.66   C539.12,74.94,540.69,76.57,540.15,80.17z M551.72,86c-1.46,0.94-3.43,1.2-4.98,1.2c-1.54,0-6.6-0.95-5.32-7.63l4.63-23.33h6.69   l-1.37,6.52h3.6l-1.2,5.32h-3.43l-1.89,9.95c-0.34,1.89-0.17,3.6,3.69,3L551.72,86z M575.06,76.14h-14.58   c-0.77,5.58,3.52,5.4,6.18,5.4c2.66,0,6.52-0.35,7.55-0.6L573.17,86c-1.63,0.86-5.75,1.2-8.58,1.12   c-11.58,0-11.41-10.89-11.15-12.44c0.26-1.54,1.63-12.26,12.44-12.26C577.63,62.42,575.83,72.19,575.06,76.14L575.06,76.14z    M584,75.97l-2.06,11.15h-6.69v0l0,0l4.55-24.36h5.75l0.6,2.4c1.03-1.2,3-2.4,6.35-2.4l-1.72,6.43   C589.15,69.19,585.97,68.68,584,75.97z M609.45,79.57l1.97,6c-2.23,1.03-4.46,1.54-8.15,1.54c-6.95,0-14.5-6.17-11.06-18.7   c2.53-9.23,10.47-12.61,15.1-12.44c5.49,0.2,7.46,2.06,9.18,3.95l-4.38,4.37c-1.72-1.03-2.92-1.2-5.15-1.2   c-2.23,0-7.21,2.13-8.15,8.15C597.7,78.37,602.59,81.89,609.45,79.57z M626.18,87.12l-0.86-1.37c-1.2,0.86-2.14,1.29-5.58,1.46   c-3.43,0.17-7.8-2.4-7.03-7.46c1.89-10.29,13.89-8.4,15.61-8.58c0.77-3.69-1.8-3.35-4.12-3.43c-2.32-0.08-6.69,0.6-8.32,0.77   l1.03-5.32h0c4.37-0.86,6.69-0.77,8.75-0.86c11.24,0,10.12,8.06,9.44,11.41l-2.66,13.38H626.18z M643.88,75.84L641.8,87.1h-6.76   l0,0l4.59-24.6h5.8l0.61,2.42c1.04-1.21,3.03-2.42,6.41-2.42l-1.82,6.41C648.99,68.9,645.87,68.47,643.88,75.84z M664.95,87.12   l-0.86-1.97c-1.37,0.94-3.6,1.89-5.83,1.97c-4.8,0-9.21-6.79-7.03-14.24c3.26-11.15,9.01-10.46,12.69-10.46   c3.18,0,3.94,1.97,5.23,2.91l1.8-9.43h7.04l-5.83,31.22H664.95z"/>
</g>
</svg>