<svg xmlns="http://www.w3.org/2000/svg" viewBox="0 0 24 24"><path d="M19.6,23.2H4.4c-1.9,0-3.5-1.5-3.5-3.4V4.2c0-1.9,1.6-3.4,3.5-3.4h13.8c0.3,0,0.5,0.2,0.5,0.5s-0.2,0.5-0.5,0.5H4.4C3,1.8,1.9,2.9,1.9,4.2v15.5c0,1.3,1.1,2.4,2.5,2.4h15.3c1.4,0,2.5-1.1,2.5-2.4v-8.3c0-0.3,0.2-0.5,0.5-0.5s0.5,0.2,0.5,0.5v8.3C23.1,21.6,21.6,23.2,19.6,23.2z"/><path d="M11.6,15.9L11.6,15.9c-0.1,0-0.3-0.1-0.4-0.2l-5-5.2C6,10.3,6,10,6.2,9.8c0.2-0.2,0.5-0.2,0.7,0l4.7,4.8L22.5,3.4c0.2-0.2,0.5-0.2,0.7,0c0.2,0.2,0.2,0.5,0,0.7L12,15.7C11.9,15.8,11.8,15.9,11.6,15.9z"/></svg>
