<?xml version="1.0" encoding="utf-8"?>
<!-- Generator: Adobe Illustrator 19.2.1, SVG Export Plug-In . SVG Version: 6.00 Build 0)  -->
<svg version="1.1" id="Слой_1" xmlns="http://www.w3.org/2000/svg" xmlns:xlink="http://www.w3.org/1999/xlink" x="0px" y="0px"
	 viewBox="0 0 24 24" style="enable-background:new 0 0 24 24;" xml:space="preserve">
<style type="text/css">
	.st0{fill:#252525;}
</style>
<path d="M19,19.5c-0.1,0-0.3,0-0.4-0.1L12,12.7l-6.6,6.6c-0.2,0.2-0.5,0.2-0.7,0s-0.2-0.5,0-0.7l6.6-6.6L4.6,5.4c-0.2-0.2-0.2-0.5,0-0.7s0.5-0.2,0.7,0l6.6,6.6l6.6-6.6c0.2-0.2,0.5-0.2,0.7,0s0.2,0.5,0,0.7L12.7,12l6.6,6.6c0.2,0.2,0.2,0.5,0,0.7C19.3,19.5,19.1,19.5,19,19.5z"/>
</svg>
