<?xml version="1.0" encoding="utf-8"?>
<!-- Generator: Adobe Illustrator 19.2.1, SVG Export Plug-In . SVG Version: 6.00 Build 0)  -->
<svg version="1.1" id="Слой_1" xmlns="http://www.w3.org/2000/svg" xmlns:xlink="http://www.w3.org/1999/xlink" x="0px" y="0px"
	 viewBox="0 0 24 24" style="enable-background:new 0 0 24 24;" xml:space="preserve">
<path d="M2.5,2.5C2.3,2.9,2,3.1,2,3.1s2,2,4.3,4.3c4.7,4.7,4.4,4.4,4.4,4.5c0,0-2,2-4.3,4.3c-2.3,2.3-4.3,4.3-4.3,4.3
	C2,20.8,2,20.8,2.6,21.3c0.3,0.3,0.6,0.5,0.6,0.5s2-2,4.3-4.3c4.7-4.7,4.4-4.4,4.5-4.4c0,0,2,2,4.4,4.4s4.3,4.3,4.3,4.3l1.1-1.1
	c0,0-2-2-4.3-4.3c-2.4-2.4-4.3-4.3-4.4-4.4c-0.1-0.1-0.3,0.2,4.4-4.5C20.1,4.9,22,3,22,3s-0.3-0.3-0.5-0.6L21,1.9L20.9,2
	c0,0-2,2-4.4,4.4l-4.3,4.3L12,10.7c-0.1,0-2.1-2-4.4-4.4C5.1,3.8,3.2,1.9,3.2,1.9C3.1,2,2.9,2.2,2.5,2.5"/>
</svg>
