<?xml version="1.0" encoding="utf-8"?>
<!-- Generator: Adobe Illustrator 19.2.1, SVG Export Plug-In . SVG Version: 6.00 Build 0)  -->
<svg version="1.1" id="Слой_1" xmlns="http://www.w3.org/2000/svg" xmlns:xlink="http://www.w3.org/1999/xlink" x="0px" y="0px"
	 viewBox="0 0 24 24" style="enable-background:new 0 0 24 24;" xml:space="preserve">
<g>
	<path d="M6,23c-0.6,0-1-0.4-1-1V2c0-0.6,0.4-1,1-1s1,0.4,1,1v20C7,22.6,6.6,23,6,23z"/>
	<path d="M12,23c-0.6,0-1-0.4-1-1V2c0-0.6,0.4-1,1-1s1,0.4,1,1v20C13,22.6,12.6,23,12,23z"/>
	<path d="M18,23c-0.6,0-1-0.4-1-1V2c0-0.6,0.4-1,1-1s1,0.4,1,1v20C19,22.6,18.6,23,18,23z"/>
		<circle cx="6" cy="8" r="2.5"/>
		<path d="M6,11c-1.7,0-3-1.3-3-3s1.3-3,3-3s3,1.3,3,3S7.7,11,6,11z M6,6C4.9,6,4,6.9,4,8s0.9,2,2,2s2-0.9,2-2S7.1,6,6,6z"/>
		<circle cx="12" cy="16" r="2.5"/>
		<path d="M12,19c-1.7,0-3-1.3-3-3s1.3-3,3-3s3,1.3,3,3S13.7,19,12,19z M12,14c-1.1,0-2,0.9-2,2s0.9,2,2,2c1.1,0,2-0.9,2-2S13.1,14,12,14z"/>
		<circle cx="18" cy="8" r="2.5"/>
		<path d="M18,11c-1.7,0-3-1.3-3-3s1.3-3,3-3s3,1.3,3,3S19.7,11,18,11z M18,6c-1.1,0-2,0.9-2,2s0.9,2,2,2s2-0.9,2-2S19.1,6,18,6z"/>
</g>
</svg>
