<?xml version="1.0" encoding="utf-8"?>
<!-- Generator: Adobe Illustrator 19.2.1, SVG Export Plug-In . SVG Version: 6.00 Build 0)  -->
<svg version="1.1" id="Слой_1" xmlns="http://www.w3.org/2000/svg" xmlns:xlink="http://www.w3.org/1999/xlink" x="0px" y="0px"
	 viewBox="0 0 24 24" style="enable-background:new 0 0 24 24;" xml:space="preserve">
<path d="M17.5,23c-1.2,0-2.2-0.3-3.2-0.9l0,0C9.4,18.8,5.2,14.6,1.9,9.9C1.2,8.7,0.9,7.4,1,6c0.2-1.5,0.7-2.7,1.7-3.7l0.6-0.6
	C4.3,0.7,6,0.7,7,1.7l3,2.9c0.5,0.5,0.7,1.2,0.7,1.8S10.5,7.8,10,8.3C9.9,8.4,9.9,8.5,9.8,8.5c0,0.1-0.1,0.2-0.1,0.3s0,0.2,0.1,0.3
	c0,0.1,0.1,0.2,0.2,0.2l4.6,4.6c0.3,0.3,0.7,0.3,0.9,0c0.9-0.9,2.7-0.9,3.7,0l2.9,2.8c0.5,0.5,0.7,1.2,0.7,1.8s-0.3,1.4-0.7,1.8
	l-0.5,0.7c-0.9,0.9-2.2,1.6-3.6,1.7C17.9,23,17.7,23,17.5,23z M15.4,20.4c0.7,0.5,1.7,0.6,2.6,0.5c0.8-0.1,1.7-0.5,2.4-1.2l0.6-0.6
	c0.1-0.1,0.2-0.3,0.2-0.5s-0.1-0.4-0.2-0.5l-2.9-2.8c-0.3-0.3-0.6-0.3-0.9,0c-0.9,0.9-2.7,0.9-3.7,0l-4.6-4.6
	c-0.3-0.2-0.5-0.5-0.5-0.8C8.1,9.6,8,9.2,8,8.8c0-0.4,0.1-0.6,0.2-0.9c0.1-0.3,0.3-0.5,0.5-0.8C8.8,7,9,6.7,9,6.5
	c0-0.2-0.1-0.3-0.2-0.4l-2.9-3c-0.3-0.3-0.7-0.3-0.9,0L4,3.7C3.5,4.3,3,5.3,2.9,6.1C2.9,7,3,7.9,3.5,8.7
	C6.6,13.4,10.6,17.3,15.4,20.4z"/>
</svg>
