<?xml version="1.0" encoding="utf-8"?>
<!-- Generator: Adobe Illustrator 19.2.1, SVG Export Plug-In . SVG Version: 6.00 Build 0)  -->
<svg version="1.1" id="Слой_1" xmlns="http://www.w3.org/2000/svg" xmlns:xlink="http://www.w3.org/1999/xlink" x="0px" y="0px"
	 viewBox="0 0 24 24" style="enable-background:new 0 0 24 24;" xml:space="preserve">
<style type="text/css">
	.st0{fill:#0D0F0F;}
</style>
<path d="M17.2,22.5c-1.1,0-2.1-0.3-3-0.9l0,0C9.5,18.5,5.5,14.5,2.4,10c-0.7-1.1-1-2.4-0.9-3.7c0.2-1.4,0.7-2.6,1.6-3.5l0.6-0.6c1-0.9,2.6-0.9,3.5,0L10.1,5c0.5,0.5,0.7,1.1,0.7,1.7S10.6,8,10.1,8.5C10,8.6,10,8.7,9.9,8.7c0,0.1-0.1,0.2-0.1,0.3c0,0.1,0,0.2,0.1,0.3c0,0.1,0.1,0.2,0.2,0.2l4.4,4.4c0.3,0.3,0.7,0.3,0.9,0c0.9-0.9,2.6-0.9,3.5,0l2.8,2.7c0.5,0.5,0.7,1.1,0.7,1.7s-0.3,1.3-0.7,1.7l-0.5,0.7c-0.9,0.9-2.1,1.5-3.4,1.6C17.6,22.5,17.4,22.5,17.2,22.5z M15.2,20c0.7,0.5,1.6,0.6,2.5,0.5c0.8-0.1,1.6-0.5,2.3-1.1l0.6-0.6c0.1-0.1,0.2-0.3,0.2-0.5s-0.1-0.4-0.2-0.5l-2.8-2.7c-0.3-0.3-0.6-0.3-0.9,0c-0.9,0.9-2.6,0.9-3.5,0l-4.4-4.4c-0.3-0.2-0.5-0.5-0.5-0.8C8.3,9.7,8.2,9.3,8.2,9c0-0.4,0.1-0.6,0.2-0.9c0.1-0.3,0.3-0.5,0.5-0.8C9,7.2,9.1,7,9.1,6.8S9,6.5,8.9,6.4L6.1,3.5c-0.3-0.3-0.7-0.3-0.9,0L4.4,4.1c-0.5,0.6-1,1.5-1.1,2.3C3.3,7.2,3.4,8.1,3.9,8.9C6.9,13.3,10.7,17,15.2,20z"/>
</svg>
