<?xml version="1.0" encoding="utf-8"?>
<!-- Generator: Adobe Illustrator 19.2.1, SVG Export Plug-In . SVG Version: 6.00 Build 0)  -->
<svg version="1.1" id="Слой_1" xmlns="http://www.w3.org/2000/svg" xmlns:xlink="http://www.w3.org/1999/xlink" x="0px" y="0px"
	 viewBox="0 0 24 24" style="enable-background:new 0 0 24 24;" xml:space="preserve">
<style type="text/css">
	.st0{fill:#0D0F0F;}
</style>
<g>
	<path class="st0" d="M23,22l-5.6-5.6c1.6-1.8,2.4-4.1,2.3-6.5c-0.1-2.5-1.1-4.8-2.9-6.5c-1.8-1.7-4.2-2.6-6.7-2.6
		c-2.5,0-4.8,1-6.6,2.8c-1.8,1.7-2.8,4.1-2.8,6.6s0.9,4.9,2.6,6.6c1.7,1.8,4.1,2.8,6.5,2.9c2.4,0.1,4.7-0.7,6.5-2.3l5.6,5.6
		c0.1,0.1,0.3,0.2,0.5,0.2c0.2,0,0.4-0.1,0.5-0.2c0.1-0.1,0.2-0.3,0.2-0.5C23.3,22.4,23.2,22.2,23,22z M2.2,10.3
		c0-1.6,0.5-3.2,1.4-4.5c0.9-1.3,2.2-2.4,3.6-3c1.5-0.6,3.1-0.8,4.7-0.5s3,1.1,4.1,2.2c1.1,1.1,1.9,2.6,2.2,4.1
		c0.3,1.6,0.2,3.2-0.5,4.7s-1.7,2.7-3,3.6s-2.9,1.4-4.5,1.4c-2.1,0-4.2-0.9-5.7-2.4C3,14.5,2.2,12.4,2.2,10.3z"/>
	<path class="st0" d="M22.6,23.5c-0.3,0-0.5-0.1-0.7-0.3l-5.5-5.5c-1.8,1.5-4.2,2.3-6.5,2.2c-2.6-0.1-4.9-1.2-6.7-3
		c-1.8-1.8-2.7-4.3-2.7-6.8c0-2.6,1-5,2.9-6.8s4.2-2.8,6.8-2.8c2.5,0,5,0.9,6.8,2.7c1.9,1.8,2.9,4.1,3,6.7c0.1,2.4-0.7,4.7-2.2,6.5
		l5.5,5.4c0.2,0.2,0.3,0.4,0.3,0.7s-0.1,0.5-0.3,0.7C23,23.4,22.8,23.5,22.6,23.5z M16.5,17.1l5.8,5.8c0.2,0.2,0.5,0.2,0.6,0
		c0.1-0.1,0.1-0.2,0.1-0.3s0-0.2-0.1-0.3l-5.8-5.8l0.2-0.2c1.5-1.8,2.3-4,2.2-6.4c-0.1-2.4-1.1-4.7-2.9-6.3C14.9,1.9,12.6,1,10.1,1
		c-2.4,0-4.7,1-6.4,2.7C2,5.4,1,7.7,1,10.1c0,2.4,0.9,4.7,2.6,6.5c1.7,1.8,3.9,2.8,6.4,2.9c2.3,0.1,4.6-0.7,6.4-2.2L16.5,17.1z
		 M10.3,18.6c-2.2,0-4.3-0.9-5.9-2.4c-1.6-1.6-2.4-3.7-2.4-5.9v0c0-1.7,0.5-3.3,1.4-4.6c0.9-1.4,2.2-2.4,3.7-3.1
		c1.5-0.6,3.2-0.8,4.8-0.5c1.6,0.3,3.1,1.1,4.3,2.3c1.2,1.2,2,2.6,2.3,4.3c0.3,1.6,0.2,3.3-0.5,4.8c-0.6,1.5-1.7,2.8-3.1,3.7
		C13.5,18.1,11.9,18.6,10.3,18.6z M2.4,10.3c0,2.1,0.8,4.1,2.3,5.5c1.5,1.5,3.5,2.3,5.5,2.3c1.6,0,3.1-0.5,4.4-1.3
		c1.3-0.9,2.3-2.1,2.9-3.5c0.6-1.4,0.8-3,0.4-4.5c-0.3-1.5-1-2.9-2.1-4c-1.1-1.1-2.5-1.8-4-2.1C10.3,2.3,8.7,2.4,7.2,3
		C5.8,3.6,4.6,4.6,3.7,5.9C2.9,7.2,2.4,8.7,2.4,10.3L2.4,10.3z"/>
</g>
</svg>
