<?xml version="1.0" encoding="utf-8"?>
<!-- Generator: Adobe Illustrator 19.2.1, SVG Export Plug-In . SVG Version: 6.00 Build 0)  -->
<svg version="1.1" id="Слой_1" xmlns="http://www.w3.org/2000/svg" xmlns:xlink="http://www.w3.org/1999/xlink" x="0px" y="0px"
	 viewBox="0 0 24 24" style="enable-background:new 0 0 24 24;" xml:space="preserve">
<style type="text/css">
	.st0{fill:#0D0F0F;}
</style>
<path class="st0" d="M22.6,23.1H1.4c-0.6,0-1-0.4-1-1v-2.6c0-2.4,4.8-6.3,10.8-6.6c-0.6-0.1-1.1-0.2-1.7-0.4
	c-1.2-0.5-2.2-1.3-2.7-2.2S5.7,8.2,5.7,6.9c0-1.7,0.7-3.1,1.9-4.2c1.2-1.2,2.6-1.8,4.4-1.8l0,0c1.3,0,2.3,0.4,3.4,1
	c1.1,0.7,1.9,1.6,2.2,2.6s0.6,2.2,0.4,3.4c-0.3,1.2-0.9,2.2-1.8,3c-0.9,0.9-2.1,1.5-3.1,1.7c-0.2,0-0.3,0.1-0.5,0.1
	c6,0.3,10.8,4.1,10.8,6.6v2.5C23.5,22.6,23.1,23.1,22.6,23.1z M2.4,21.1h19.2v-1.7c0-1.2-3.9-4.6-9.6-4.6s-9.6,3.3-9.6,4.5
	C2.4,19.3,2.4,21.1,2.4,21.1z M12,2.9c-1.2,0-2.2,0.5-3,1.3C8.2,5,7.7,5.9,7.7,7c0,0.8,0.3,1.6,0.8,2.2s1.2,1.2,2,1.6
	c0.8,0.3,1.7,0.4,2.4,0.2c0.9-0.2,1.7-0.6,2.2-1.2c0.6-0.6,1-1.3,1.2-2.2c0.1-0.8,0-1.6-0.4-2.3C15.6,4.6,15,4,14.2,3.5
	C13.8,3.2,12.9,2.9,12,2.9L12,2.9L12,2.9z M12,1.9L12,1.9L12,1.9z"/>
</svg>
