<svg viewBox="0 0 187 78" fill="#2F2F2F" xmlns="http://www.w3.org/2000/svg">
<path d="M35.7599 29.8111H26.8821C26.7637 28.8996 26.5211 28.0769 26.1541 27.343C25.7872 26.6091 25.3018 25.9818 24.6982 25.4609C24.0945 24.9401 23.3783 24.5436 22.5497 24.2713C21.733 23.9872 20.8274 23.8452 19.8331 23.8452C18.0694 23.8452 16.5483 24.2772 15.2699 25.1413C14.0033 26.0054 13.0268 27.2543 12.3402 28.8878C11.6655 30.5213 11.3281 32.4981 11.3281 34.8182C11.3281 37.233 11.6714 39.2571 12.358 40.8906C13.0563 42.5123 14.0329 43.7375 15.2876 44.5661C16.5542 45.3828 18.0516 45.7912 19.7798 45.7912C20.7505 45.7912 21.6323 45.6669 22.4254 45.4183C23.2304 45.1697 23.9347 44.8087 24.5384 44.3352C25.1539 43.8499 25.657 43.264 26.0476 42.5774C26.45 41.879 26.7282 41.0919 26.8821 40.2159L35.7599 40.2692C35.6061 41.879 35.1385 43.4652 34.3572 45.0277C33.5878 46.5902 32.5284 48.0166 31.179 49.3068C29.8295 50.5852 28.1842 51.6032 26.2429 52.3608C24.3134 53.1184 22.0999 53.4972 19.6023 53.4972C16.3116 53.4972 13.3641 52.7751 10.7599 51.331C8.16761 49.875 6.11979 47.7562 4.61648 44.9744C3.11316 42.1927 2.36151 38.8073 2.36151 34.8182C2.36151 30.8172 3.125 27.4259 4.65199 24.6442C6.17898 21.8625 8.24456 19.7495 10.8487 18.3054C13.4529 16.8613 16.3707 16.1392 19.6023 16.1392C21.804 16.1392 23.84 16.447 25.7102 17.0625C27.5805 17.6662 29.2259 18.554 30.6463 19.7259C32.0668 20.8859 33.2209 22.3123 34.1087 24.005C34.9964 25.6977 35.5469 27.633 35.7599 29.8111ZM40.7892 53V16.6364H55.8105C58.5331 16.6364 60.8828 17.1276 62.8596 18.1101C64.8482 19.0807 66.3811 20.4775 67.4583 22.3004C68.5355 24.1115 69.074 26.2599 69.074 28.7457C69.074 31.267 68.5236 33.4096 67.4228 35.1733C66.3219 36.9252 64.7594 38.2628 62.7353 39.1861C60.7111 40.0975 58.3141 40.5533 55.5442 40.5533H46.0449V33.6286H53.9107C55.2364 33.6286 56.3432 33.4569 57.231 33.1136C58.1306 32.7585 58.8113 32.2259 59.2729 31.5156C59.7346 30.7936 59.9654 29.8703 59.9654 28.7457C59.9654 27.6212 59.7346 26.692 59.2729 25.9581C58.8113 25.2124 58.1306 24.656 57.231 24.2891C56.3314 23.9103 55.2246 23.7209 53.9107 23.7209H49.5783V53H40.7892ZM61.2615 36.3807L70.3169 53H60.7289L51.851 36.3807H61.2615ZM73.8947 53V16.6364H99.2498V23.7741H82.6838V31.2315H97.9537V38.3871H82.6838V45.8622H99.2498V53H73.8947ZM112.62 53H103.174L115.443 16.6364H127.144L139.413 53H129.967L121.427 25.7983H121.143L112.62 53ZM111.359 38.6889H131.104V45.3651H111.359V38.6889ZM143.328 16.6364H154.213L163.445 39.1506H163.872L173.105 16.6364H183.989V53H175.431V30.6634H175.129L166.393 52.7692H160.924L152.188 30.5391H151.887V53H143.328V16.6364Z"/>
<path d="M22.4233 72.9389L24.8821 67.4545H25.6193L22.7259 74H22.1207L19.2614 67.4545H19.9858L22.4233 72.9389ZM19.7599 67.4545V74H19.0014V67.4545H19.7599ZM25.0866 74V67.4545H25.8452V74H25.0866ZM29.6889 74.1491C29.294 74.1491 28.9332 74.0724 28.6065 73.919C28.2798 73.7628 28.0199 73.5384 27.8267 73.2457C27.6335 72.9503 27.5369 72.5923 27.5369 72.1719C27.5369 71.848 27.598 71.5753 27.7202 71.3537C27.8423 71.1321 28.0156 70.9503 28.2401 70.8082C28.4645 70.6662 28.7301 70.554 29.0369 70.4716C29.3438 70.3892 29.6818 70.3253 30.0511 70.2798C30.4176 70.2344 30.7273 70.1946 30.9801 70.1605C31.2358 70.1264 31.4304 70.0724 31.5639 69.9986C31.6974 69.9247 31.7642 69.8054 31.7642 69.6406V69.4872C31.7642 69.0412 31.6307 68.6903 31.3636 68.4347C31.0994 68.1761 30.7188 68.0469 30.2216 68.0469C29.75 68.0469 29.3651 68.1506 29.0668 68.358C28.7713 68.5653 28.5639 68.8097 28.4446 69.0909L27.7244 68.831C27.8722 68.473 28.0767 68.1875 28.3381 67.9744C28.5994 67.7585 28.892 67.6037 29.2159 67.5099C29.5398 67.4134 29.8679 67.3651 30.2003 67.3651C30.4503 67.3651 30.7102 67.3977 30.9801 67.4631C31.2528 67.5284 31.5057 67.642 31.7386 67.804C31.9716 67.9631 32.1605 68.1861 32.3054 68.473C32.4503 68.7571 32.5227 69.1179 32.5227 69.5554V74H31.7642V72.9645H31.7173C31.6264 73.1577 31.4915 73.3452 31.3125 73.527C31.1335 73.7088 30.9091 73.858 30.6392 73.9744C30.3693 74.0909 30.0526 74.1491 29.6889 74.1491ZM29.7912 73.4545C30.1946 73.4545 30.544 73.3651 30.8395 73.1861C31.1349 73.0071 31.3622 72.7699 31.5213 72.4744C31.6832 72.1761 31.7642 71.848 31.7642 71.4901V70.544C31.7074 70.598 31.6122 70.6463 31.4787 70.6889C31.348 70.7315 31.196 70.7699 31.0227 70.804C30.8523 70.8352 30.6818 70.8622 30.5114 70.8849C30.3409 70.9077 30.1875 70.9276 30.0511 70.9446C29.6818 70.9901 29.3665 71.0611 29.1051 71.1577C28.8438 71.2543 28.6435 71.3878 28.5043 71.5582C28.3651 71.7259 28.2955 71.9418 28.2955 72.206C28.2955 72.6037 28.4375 72.9119 28.7216 73.1307C29.0057 73.3466 29.3622 73.4545 29.7912 73.4545ZM38.4311 67.4545V68.1705H35.299V74H34.5405V67.4545H38.4311ZM41.5131 74.1491C41.1183 74.1491 40.7575 74.0724 40.4308 73.919C40.104 73.7628 39.8441 73.5384 39.6509 73.2457C39.4577 72.9503 39.3612 72.5923 39.3612 72.1719C39.3612 71.848 39.4222 71.5753 39.5444 71.3537C39.6665 71.1321 39.8398 70.9503 40.0643 70.8082C40.2887 70.6662 40.5543 70.554 40.8612 70.4716C41.168 70.3892 41.506 70.3253 41.8754 70.2798C42.2418 70.2344 42.5515 70.1946 42.8043 70.1605C43.06 70.1264 43.2546 70.0724 43.3881 69.9986C43.5217 69.9247 43.5884 69.8054 43.5884 69.6406V69.4872C43.5884 69.0412 43.4549 68.6903 43.1879 68.4347C42.9237 68.1761 42.543 68.0469 42.0458 68.0469C41.5742 68.0469 41.1893 68.1506 40.891 68.358C40.5955 68.5653 40.3881 68.8097 40.2688 69.0909L39.5487 68.831C39.6964 68.473 39.9009 68.1875 40.1623 67.9744C40.4237 67.7585 40.7163 67.6037 41.0401 67.5099C41.364 67.4134 41.6921 67.3651 42.0245 67.3651C42.2745 67.3651 42.5344 67.3977 42.8043 67.4631C43.0771 67.5284 43.3299 67.642 43.5629 67.804C43.7958 67.9631 43.9847 68.1861 44.1296 68.473C44.2745 68.7571 44.3469 69.1179 44.3469 69.5554V74H43.5884V72.9645H43.5415C43.4506 73.1577 43.3157 73.3452 43.1367 73.527C42.9577 73.7088 42.7333 73.858 42.4634 73.9744C42.1935 74.0909 41.8768 74.1491 41.5131 74.1491ZM41.6154 73.4545C42.0188 73.4545 42.3683 73.3651 42.6637 73.1861C42.9592 73.0071 43.1864 72.7699 43.3455 72.4744C43.5075 72.1761 43.5884 71.848 43.5884 71.4901V70.544C43.5316 70.598 43.4364 70.6463 43.3029 70.6889C43.1722 70.7315 43.0202 70.7699 42.8469 70.804C42.6765 70.8352 42.506 70.8622 42.3356 70.8849C42.1651 70.9077 42.0117 70.9276 41.8754 70.9446C41.506 70.9901 41.1907 71.0611 40.9293 71.1577C40.668 71.2543 40.4677 71.3878 40.3285 71.5582C40.1893 71.7259 40.1197 71.9418 40.1197 72.206C40.1197 72.6037 40.2617 72.9119 40.5458 73.1307C40.8299 73.3466 41.1864 73.4545 41.6154 73.4545ZM45.9428 72.3295H46.7482C46.771 72.679 46.9215 72.9517 47.1999 73.1477C47.4783 73.3438 47.8448 73.4418 48.2994 73.4418C48.771 73.4418 49.1602 73.3366 49.467 73.1264C49.7738 72.9134 49.9272 72.6037 49.9272 72.1974C49.9272 71.9503 49.869 71.7358 49.7525 71.554C49.6388 71.3722 49.4826 71.2301 49.2837 71.1278C49.0877 71.0227 48.8647 70.9687 48.6147 70.9659H47.4727V70.2713H48.6019C48.9911 70.2486 49.2866 70.1435 49.4883 69.956C49.69 69.7656 49.7908 69.517 49.7908 69.2102C49.7908 68.8608 49.6673 68.581 49.4201 68.3707C49.1729 68.1577 48.8377 68.0511 48.4144 68.0511C47.9854 68.0511 47.6289 68.1562 47.3448 68.3665C47.0607 68.5767 46.9102 68.8466 46.8931 69.1761H46.0962C46.1104 68.821 46.217 68.5085 46.4158 68.2386C46.6147 67.9659 46.8832 67.7528 47.2212 67.5994C47.5621 67.446 47.9485 67.3693 48.3803 67.3693C48.8235 67.3693 49.2085 67.4489 49.5352 67.608C49.8619 67.767 50.1147 67.9844 50.2937 68.2599C50.4727 68.5327 50.5621 68.8423 50.5621 69.1889C50.5621 69.5497 50.4627 69.8466 50.2638 70.0795C50.0678 70.3097 49.8164 70.4716 49.5096 70.5653V70.6293C49.7425 70.6548 49.9471 70.7401 50.1232 70.8849C50.3022 71.0298 50.4428 71.2159 50.5451 71.4432C50.6474 71.6705 50.6985 71.9219 50.6985 72.1974C50.6985 72.5838 50.5977 72.9233 50.396 73.2159C50.1942 73.5057 49.913 73.7315 49.5522 73.8935C49.1942 74.0554 48.7809 74.1364 48.3121 74.1364C47.8604 74.1364 47.4585 74.0611 47.1062 73.9105C46.7539 73.7571 46.4741 73.5455 46.2667 73.2756C46.0621 73.0028 45.9542 72.6875 45.9428 72.3295ZM53.0178 72.9219L56.4737 67.4545H57.3814V74H56.6229V68.5327L53.1797 74H52.2592V67.4545H53.0178V72.9219ZM63.8033 70.3736V71.0895H59.9553V70.3736H63.8033ZM60.1428 67.4545V74H59.3842V67.4545H60.1428ZM64.3615 67.4545V74H63.603V67.4545H64.3615ZM70.2837 76.4545C70.1332 76.4545 69.9925 76.4403 69.8619 76.4119C69.7312 76.3835 69.6275 76.3523 69.5508 76.3182L69.7553 75.6491C70.0138 75.7287 70.244 75.7571 70.4457 75.7344C70.6474 75.7145 70.8263 75.6236 70.9826 75.4616C71.1388 75.3026 71.2781 75.0582 71.4002 74.7287L71.6388 74.0639L69.2312 67.4545H70.0536L71.9968 72.9986H72.0565L73.9996 67.4545H74.8221L72.0522 75.0355C71.9357 75.3509 71.7923 75.6136 71.6218 75.8239C71.4513 76.0369 71.2539 76.1946 71.0295 76.2969C70.8079 76.402 70.5593 76.4545 70.2837 76.4545ZM75.1119 74V73.2841H75.3164C75.5494 73.2841 75.7369 73.2415 75.8789 73.1562C76.0238 73.0682 76.136 72.9205 76.2156 72.7131C76.2951 72.5057 76.3548 72.223 76.3945 71.8651C76.4343 71.5071 76.4656 71.0582 76.4883 70.5185L76.6289 67.4545H80.788V74H80.0252V68.1705H77.3491L77.2255 70.7741C77.1999 71.3054 77.1573 71.7727 77.0977 72.1761C77.0408 72.5795 76.9471 72.9162 76.8164 73.1861C76.6886 73.456 76.5096 73.6591 76.2795 73.7955C76.0522 73.9318 75.7539 74 75.3846 74H75.1119ZM83.5568 72.9219L87.0128 67.4545H87.9205V74H87.1619V68.5327L83.7188 74H82.7983V67.4545H83.5568V72.9219ZM94.7514 67.4545V74H93.9886V67.4545H94.7514ZM94.4702 70.6889V71.4134C94.2116 71.5071 93.9659 71.5866 93.733 71.652C93.5 71.7145 93.2656 71.7628 93.0298 71.7969C92.7969 71.831 92.5483 71.848 92.2841 71.848C91.5483 71.8452 90.9702 71.6562 90.5497 71.2812C90.1321 70.9062 89.9233 70.3352 89.9233 69.5682V67.4332H90.6818V69.5682C90.6818 69.9318 90.7472 70.2287 90.8778 70.4588C91.0085 70.6889 91.1932 70.8594 91.4318 70.9702C91.6705 71.0781 91.9517 71.1321 92.2756 71.1321C92.6733 71.1321 93.0483 71.0923 93.4006 71.0128C93.7528 70.9332 94.1094 70.8253 94.4702 70.6889ZM101.186 70.3736V71.0895H97.3381V70.3736H101.186ZM97.5256 67.4545V74H96.767V67.4545H97.5256ZM101.744 67.4545V74H100.986V67.4545H101.744ZM106.307 74.1364C105.742 74.1364 105.242 73.9929 104.807 73.706C104.375 73.419 104.037 73.0227 103.793 72.517C103.549 72.0085 103.426 71.4219 103.426 70.7571C103.426 70.0866 103.549 69.4972 103.793 68.9886C104.037 68.4773 104.375 68.0795 104.807 67.7955C105.242 67.5085 105.742 67.3651 106.307 67.3651C106.873 67.3651 107.371 67.5085 107.803 67.7955C108.235 68.0824 108.573 68.4801 108.817 68.9886C109.064 69.4972 109.188 70.0866 109.188 70.7571C109.188 71.4219 109.066 72.0085 108.821 72.517C108.577 73.0227 108.238 73.419 107.803 73.706C107.371 73.9929 106.873 74.1364 106.307 74.1364ZM106.307 73.4418C106.762 73.4418 107.147 73.3196 107.462 73.0753C107.777 72.831 108.016 72.5057 108.178 72.0994C108.343 71.6932 108.425 71.2457 108.425 70.7571C108.425 70.2685 108.343 69.8196 108.178 69.4105C108.016 69.0014 107.777 68.6733 107.462 68.4261C107.147 68.179 106.762 68.0554 106.307 68.0554C105.855 68.0554 105.471 68.179 105.152 68.4261C104.837 68.6733 104.597 69.0014 104.432 69.4105C104.27 69.8196 104.189 70.2685 104.189 70.7571C104.189 71.2457 104.27 71.6932 104.432 72.0994C104.597 72.5057 104.837 72.831 105.152 73.0753C105.468 73.3196 105.853 73.4418 106.307 73.4418ZM111.612 72.9219L115.067 67.4545H115.975V74H115.217V68.5327L111.773 74H110.853V67.4545H111.612V72.9219ZM114.198 65.2727H114.914C114.914 65.679 114.779 66.0085 114.509 66.2614C114.242 66.5142 113.877 66.6406 113.414 66.6406C112.957 66.6406 112.594 66.5142 112.327 66.2614C112.06 66.0085 111.927 65.679 111.927 65.2727H112.643C112.643 65.4943 112.702 65.6818 112.822 65.8352C112.944 65.9858 113.141 66.0611 113.414 66.0611C113.687 66.0611 113.886 65.9858 114.011 65.8352C114.136 65.6818 114.198 65.4943 114.198 65.2727ZM123.897 74.1364C123.332 74.1364 122.832 73.9929 122.397 73.706C121.965 73.419 121.627 73.0227 121.383 72.517C121.138 72.0085 121.016 71.4219 121.016 70.7571C121.016 70.0866 121.138 69.4972 121.383 68.9886C121.627 68.4773 121.965 68.0795 122.397 67.7955C122.832 67.5085 123.332 67.3651 123.897 67.3651C124.462 67.3651 124.961 67.5085 125.393 67.7955C125.825 68.0824 126.163 68.4801 126.407 68.9886C126.654 69.4972 126.778 70.0866 126.778 70.7571C126.778 71.4219 126.656 72.0085 126.411 72.517C126.167 73.0227 125.827 73.419 125.393 73.706C124.961 73.9929 124.462 74.1364 123.897 74.1364ZM123.897 73.4418C124.352 73.4418 124.737 73.3196 125.052 73.0753C125.367 72.831 125.606 72.5057 125.768 72.0994C125.933 71.6932 126.015 71.2457 126.015 70.7571C126.015 70.2685 125.933 69.8196 125.768 69.4105C125.606 69.0014 125.367 68.6733 125.052 68.4261C124.737 68.179 124.352 68.0554 123.897 68.0554C123.445 68.0554 123.06 68.179 122.742 68.4261C122.427 68.6733 122.187 69.0014 122.022 69.4105C121.86 69.8196 121.779 70.2685 121.779 70.7571C121.779 71.2457 121.86 71.6932 122.022 72.0994C122.187 72.5057 122.427 72.831 122.742 73.0753C123.058 73.3196 123.442 73.4418 123.897 73.4418ZM127.667 75.8622V73.2841H128.234C128.376 73.125 128.5 72.9531 128.605 72.7685C128.71 72.5838 128.801 72.3736 128.877 72.1378C128.957 71.8991 129.024 71.6222 129.078 71.3068C129.132 70.9886 129.177 70.6179 129.214 70.1946L129.453 67.4545H133.326V73.2841H134.298V75.8622H133.539V74H128.43V75.8622H127.667ZM129.108 73.2841H132.568V68.1705H130.16L129.964 70.1946C129.896 70.8821 129.799 71.4815 129.674 71.9929C129.549 72.5043 129.36 72.9347 129.108 73.2841ZM138.39 74.1364C137.779 74.1364 137.251 73.9943 136.805 73.7102C136.359 73.4233 136.013 73.027 135.769 72.5213C135.528 72.0128 135.407 71.4276 135.407 70.7656C135.407 70.1065 135.528 69.5213 135.769 69.0099C136.013 68.4957 136.35 68.0937 136.779 67.804C137.211 67.5114 137.71 67.3651 138.275 67.3651C138.63 67.3651 138.972 67.4304 139.302 67.5611C139.631 67.6889 139.927 67.8864 140.188 68.1534C140.452 68.4176 140.661 68.7514 140.815 69.1548C140.968 69.5554 141.045 70.0298 141.045 70.5781V70.9531H135.931V70.2841H140.269C140.269 69.8636 140.184 69.4858 140.013 69.1506C139.846 68.8125 139.612 68.5455 139.31 68.3494C139.012 68.1534 138.667 68.0554 138.275 68.0554C137.86 68.0554 137.495 68.1662 137.18 68.3878C136.864 68.6094 136.617 68.902 136.438 69.2656C136.262 69.6293 136.173 70.027 136.17 70.4588V70.8594C136.17 71.3793 136.259 71.8338 136.438 72.223C136.62 72.6094 136.877 72.9091 137.21 73.1222C137.542 73.3352 137.935 73.4418 138.39 73.4418C138.7 73.4418 138.971 73.3935 139.204 73.2969C139.44 73.2003 139.637 73.071 139.796 72.9091C139.958 72.7443 140.08 72.5639 140.163 72.3679L140.883 72.6023C140.783 72.8778 140.62 73.1321 140.393 73.3651C140.168 73.598 139.887 73.7855 139.549 73.9276C139.214 74.0668 138.827 74.1364 138.39 74.1364ZM142.131 74L145.021 70.6932L142.17 67.4545H143.094L145.604 70.3651H146.043V67.4545H146.806V70.3651H147.237L149.746 67.4545H150.671L147.829 70.6932L150.71 74H149.772L147.224 71.081H146.806V74H146.043V71.081H145.626L143.069 74H142.131ZM151.527 75.8622V73.2841H152.093C152.235 73.125 152.359 72.9531 152.464 72.7685C152.569 72.5838 152.66 72.3736 152.737 72.1378C152.816 71.8991 152.883 71.6222 152.937 71.3068C152.991 70.9886 153.037 70.6179 153.074 70.1946L153.312 67.4545H157.186V73.2841H158.157V75.8622H157.399V74H152.289V75.8622H151.527ZM152.967 73.2841H156.427V68.1705H154.02L153.824 70.1946C153.755 70.8821 153.659 71.4815 153.534 71.9929C153.409 72.5043 153.22 72.9347 152.967 73.2841ZM160.242 69.9815H162.16C162.896 69.9815 163.464 70.1605 163.864 70.5185C164.265 70.8764 164.465 71.3608 164.465 71.9716C164.465 72.3778 164.374 72.733 164.192 73.0369C164.013 73.3409 163.752 73.5781 163.408 73.7486C163.065 73.9162 162.648 74 162.16 74H159.612V67.4545H160.374V73.2841H162.16C162.623 73.2841 162.995 73.1733 163.276 72.9517C163.56 72.7301 163.702 72.4148 163.702 72.0057C163.702 71.5881 163.56 71.2656 163.276 71.0384C162.995 70.8111 162.623 70.6974 162.16 70.6974H160.242V69.9815ZM165.569 74V67.4545H166.327V74H165.569Z"/>
</svg>
