<svg xmlns="http://www.w3.org/2000/svg" viewBox="0 0 283.46 283.46">
<path class="st0" d="M141.73,0.02C63.46,0.02,0,63.47,0,141.75c0,78.28,63.46,141.73,141.73,141.73  c78.28,0,141.73-63.46,141.73-141.73C283.46,63.47,220.01,0.02,141.73,0.02z M57.56,138.32l0.08-0.38l0.18-0.36l0.22-0.41l0.32-0.41  l0.38-0.47l0.47-0.43l33.32-31.72l1.55-1.42l1.55-1.38l1.53-1.37l1.53-1.34l1.5-1.35l1.5-1.3l1.48-1.31l1.46-1.26l1.44-1.26  l1.42-1.24l2.82-2.42l2.73-2.37l1.35-1.15l1.34-1.1l2.59-2.22l1.27-1.08l1.28-1.05l1.24-1.04l1.25-1.03l1.23-0.99l1.23-0.98  l1.17-0.97l1.17-0.95l1.16-0.94l1.14-0.9l1.11-0.91l1.12-0.87l2.19-1.68l1.04-0.84l1.04-0.8l1.03-0.8l1.02-0.76l0.99-0.76l0.98-0.73  l1.94-1.4l0.91-0.69l0.91-0.66l1.79-1.26l0.87-0.62l0.85-0.59l0.84-0.57l0.84-0.54l0.8-0.54l0.78-0.54l0.77-0.49l0.77-0.47  l0.74-0.48l0.74-0.44l0.71-0.43l0.71-0.39l0.66-0.41l0.66-0.37l0.65-0.36L158.6,52l0.6-0.32l0.61-0.31l0.59-0.28l0.58-0.26l1.31-0.6  l1.32-0.57l1.29-0.57l1.3-0.51l1.26-0.53l1.28-0.47l1.27-0.45l1.26-0.41l1.23-0.41l1.22-0.36l1.2-0.35l1.21-0.31l1.18-0.29  l1.19-0.26l1.17-0.24l1.19-0.22l1.14-0.2l1.14-0.15l1.11-0.14l1.12-0.11l1.09-0.08l1.09-0.09l1.07-0.03l1.07,0.01h1.04l1.05,0.06  l1.02,0.06l1.03,0.11l1,0.1l1,0.16l0.99,0.17l0.99,0.21l1.86,0.44l1.8,0.48l0.87,0.24l0.85,0.24l1.63,0.51l1.54,0.55l1.47,0.56  l0.69,0.28l0.69,0.31l1.3,0.62l1.2,0.64l1.15,0.69l1.03,0.7l0.98,0.71l0.87,0.74l0.4,0.39l0.38,0.39l0.71,0.79l0.64,0.84l0.33,0.72  l0.28,0.79l0.23,0.82l0.18,0.85l0.12,0.86l0.05,0.92l-0.01,0.95l-0.03,1l-0.14,1.01l-0.16,1.06l-0.23,1.07l-0.29,1.14l-0.35,1.15  L217.44,68l-0.46,1.21l-0.5,1.28l-0.6,1.29l-0.64,1.32l-0.69,1.34l-0.73,1.41l-0.82,1.43l-0.86,1.46l-0.91,1.49l-0.96,1.56  l-1.06,1.56l-1.1,1.6l-1.15,1.62l-1.2,1.67l-1.28,1.71l-1.31,1.76l-1.38,1.76l-1.43,1.81l-60.15,66.67l-0.37,0.39l-0.34,0.34  l-0.69,0.69l-0.37,0.32l-0.36,0.27l-0.72,0.56l-0.78,0.44l-0.39,0.2l-0.38,0.2l-0.78,0.28l-0.39,0.14l-0.4,0.11l-0.44,0.1  l-0.42,0.07l-0.83,0.1l-0.43,0.01h-0.42l-0.87-0.03l-0.93-0.12l-0.45-0.09l-0.46-0.1l-0.92-0.27l-0.47-0.16l-0.47-0.16l-66.59-24.19  l-0.62-0.21l-0.56-0.21l-0.49-0.24l-0.38-0.22l-0.34-0.27l-0.25-0.3l-0.19-0.31l-0.11-0.31l-0.05-0.34L57.56,138.32z M143.75,215.14  l-0.01,0.3l-0.04,0.14l-0.02,0.15l-0.04,0.26l-0.08,0.23l-0.07,0.24l-0.08,0.22l-0.09,0.2l-0.14,0.16l-0.05,0.04l-0.02,0.03  l-0.05,0.1l-0.15,0.14l-0.14,0.13l-0.19,0.12l-0.1,0.04l-0.07,0.06l-0.2,0.07l-0.1,0.03l-0.05,0.01l-0.03,0.03l-0.24,0.04h-0.08  l-0.05,0.01l-0.1,0.03l-0.25,0.01l-0.12-0.01l-0.1,0.01l-0.29-0.01l-0.28-0.04l-0.3-0.04l-0.15-0.04l-0.08-0.01h-0.06l-24.71-10.01  l-0.88-0.34l-0.84-0.27l-0.84-0.22l-0.42-0.1l-0.39-0.05l-0.84-0.1l-0.82-0.03l-0.82,0.03l-0.79,0.09l-0.83,0.14l-0.81,0.23  l-0.81,0.26l-0.77,0.33l-0.8,0.4l-0.77,0.46l-0.41,0.24l-0.38,0.27l-0.74,0.59L80.17,233.3l-1.05,0.82l-1,0.77l-1,0.7l-0.96,0.69  l-0.98,0.59l-0.93,0.56l-0.95,0.49l-0.9,0.47l-0.93,0.37l-0.88,0.36l-0.9,0.27l-0.85,0.24l-0.87,0.17l-0.82,0.14l-0.83,0.06  l-0.78,0.03l-0.81-0.06l-0.77-0.08l-0.78-0.16l-0.73-0.2l-0.74-0.24l-0.72-0.31l-0.72-0.37l-0.67-0.4l-0.7-0.48l-0.65-0.53  l-0.67-0.57l-0.6-0.63l-0.63-0.72l-0.6-0.71l-0.6-0.8l-0.55-0.84l0.76,0.04l0.78,0.02h0.77l0.79-0.02l1.53-0.11l0.77-0.09l0.78-0.12  l0.75-0.11l0.76-0.17l1.51-0.39l0.75-0.21l0.76-0.26l1.51-0.56l1.48-0.66l0.73-0.37l0.74-0.39l1.47-0.83l1.47-0.92l0.71-0.51  l0.72-0.52l0.73-0.54l0.72-0.56l0.72-0.6l0.71-0.62l0.72-0.61l0.73-0.66l28.02-33.48l0.19-0.44l0.17-0.41l0.11-0.4l0.1-0.4l0.03-0.4  l0.03-0.36l-0.02-0.11l-0.01-0.04l0.01-0.04l-0.01-0.17l-0.06-0.34l-0.12-0.36l-0.13-0.33l-0.21-0.34l-0.2-0.3l-0.28-0.33  l-0.29-0.29l-0.34-0.3l-0.38-0.27l-16.97-6.79l-0.72-0.3L87,176.8l-0.32-0.08l-0.69-0.17l-0.64-0.09l-0.66-0.07l-0.64,0.02  l-0.63,0.07l-0.57,0.13l-0.6,0.17l-0.59,0.24l-0.57,0.28l-0.55,0.37L80,178.06l-0.53,0.47l-0.52,0.53l-0.49,0.61l-8.26,9.05  l-10.39-4.3l-7.38-31.96l-0.22-0.96l-0.16-0.85l-0.11-0.79l-0.04-0.36l0.01-0.33v-0.66l0.09-0.55l0.14-0.49l0.21-0.39l0.09-0.18  l0.14-0.15l0.3-0.27l0.36-0.19l0.2-0.07l0.23-0.03l0.47-0.06l0.56,0.03l0.62,0.11l0.68,0.19l72.74,25.51l0.68,0.27l0.67,0.33  l0.62,0.33l0.6,0.34l0.52,0.37l0.51,0.39l0.45,0.43l0.43,0.45l0.37,0.44l0.33,0.49l0.29,0.5l0.28,0.51l0.21,0.54l0.18,0.56  l0.13,0.57l0.12,0.61l8.31,32.7l0.14,0.86l0.01,0.19l0.04,0.2l0.06,0.4l0.03,0.37l0.03,0.35l-0.02,0.07v0.08l0.02,0.17l0.01,0.34  L143.75,215.14z M231.42,112.75l-0.15,0.67l-0.37,1.39l-0.46,1.4l-0.53,1.45l-0.63,1.47l-0.35,0.73l-0.36,0.77l-0.4,0.77l-0.41,0.77  l-0.89,1.59l-0.99,1.6l-0.53,0.81l-0.53,0.84l-0.58,0.81l-0.59,0.86l-1.25,1.72l-1.35,1.74l-0.71,0.89l-0.72,0.89l-1.5,1.82  l-0.79,0.92l-0.8,0.93l-62.59,73.54l-0.39,0.42l-0.35,0.39l-0.34,0.29l-0.32,0.26l-0.32,0.15l-0.28,0.11l-0.27,0.04l-0.24-0.01  l-0.25-0.1l-0.22-0.14l-0.21-0.22l-0.16-0.27l-0.17-0.36l-0.16-0.4l-0.13-0.5l-0.1-0.53l-8.23-32.36l-0.24-0.7l-0.16-0.67  l-0.12-0.66l-0.04-0.66l-0.03-0.69l0.04-0.66l0.1-0.64l0.18-0.66l0.19-0.66l0.26-0.63l0.32-0.66l0.38-0.65l0.41-0.64l0.47-0.61  l0.51-0.63l0.6-0.61l2.22-2.46l2.27-2.49l2.26-2.51l2.31-2.52l2.3-2.57l2.36-2.57l2.36-2.6l2.4-2.61l2.39-2.66l2.43-2.65l2.43-2.69  l2.48-2.73l2.47-2.74l2.52-2.76l2.54-2.77l2.59-2.81l1.39-1.57l1.39-1.54l1.34-1.52l1.32-1.49l1.3-1.47l1.26-1.43l1.23-1.42  l1.22-1.39l1.18-1.39l1.16-1.35l1.11-1.33l1.12-1.28l1.05-1.29l1.07-1.25l1.01-1.24l1-1.18l0.95-1.19l0.94-1.16l0.91-1.13l0.89-1.12  l0.84-1.09l0.83-1.04l0.78-1.05l0.79-1.01l0.74-0.99l0.72-0.96l0.67-0.95l0.68-0.91l0.61-0.92l0.62-0.87l0.57-0.84l0.57-0.81l0.63-1  l0.61-0.96l1.18-1.85l0.56-0.91l0.55-0.89l0.51-0.87l0.5-0.84l0.47-0.84l0.46-0.82l0.43-0.79l0.41-0.77l0.76-1.49l0.35-0.72  l0.34-0.69l0.59-1.34l0.26-0.65l0.26-0.61l0.21-0.62l0.22-0.59l0.19-0.56l0.2-0.54l0.13-0.54l0.14-0.5l0.11-0.49l0.1-0.47l0.05-0.46  l0.06-0.41l0.04-0.42l0.03-0.38l0.27,1.49l0.31,1.62l0.3,1.74l0.15,0.91l0.2,0.95l0.33,1.98l0.15,1.01l0.2,1.08l0.17,1.09l0.19,1.11  l0.19,1.15l0.21,1.18l0.37,2.45l0.4,2.57l0.2,1.33l0.22,1.34l0.2,1.37l0.24,1.44l0.19,1.44l0.24,1.46l0.21,1.52l0.24,1.53l0.21,1.53  l0.24,1.61l0.24,1.6l0.26,1.67l0.03,0.27l0.06,0.27l0.1,0.54l0.17,1.11l0.13,1.09l0.13,1.12l0.08,1.09l0.06,1.09l0.01,0.53  l0.03,0.55l0.03,1.09L231.42,112.75z"/>
</svg>